<mxfile host="65bd71144e">
    <diagram id="xiSlfeRzDqdX9YtocbaP" name="Page-1">
        <mxGraphModel dx="2169" dy="719" grid="1" gridSize="10" guides="1" tooltips="1" connect="1" arrows="1" fold="1" page="1" pageScale="1" pageWidth="827" pageHeight="1169" math="0" shadow="0">
            <root>
                <mxCell id="0"/>
                <mxCell id="1" parent="0"/>
                <mxCell id="4" style="edgeStyle=none;html=1;entryX=0.5;entryY=0;entryDx=0;entryDy=0;entryPerimeter=0;" parent="1" source="2" target="3" edge="1">
                    <mxGeometry relative="1" as="geometry"/>
                </mxCell>
                <mxCell id="2" value="START" style="strokeWidth=2;html=1;shape=mxgraph.flowchart.start_2;whiteSpace=wrap;" parent="1" vertex="1">
                    <mxGeometry x="350" y="50" width="100" height="60" as="geometry"/>
                </mxCell>
                <mxCell id="8" style="edgeStyle=none;html=1;" parent="1" source="3" edge="1">
                    <mxGeometry relative="1" as="geometry">
                        <mxPoint x="240" y="200" as="targetPoint"/>
                    </mxGeometry>
                </mxCell>
                <mxCell id="9" value="No" style="edgeLabel;html=1;align=center;verticalAlign=middle;resizable=0;points=[];" parent="8" vertex="1" connectable="0">
                    <mxGeometry x="0.4365" y="-3" relative="1" as="geometry">
                        <mxPoint x="13" y="3" as="offset"/>
                    </mxGeometry>
                </mxCell>
                <mxCell id="16" style="edgeStyle=none;html=1;exitX=0.5;exitY=1;exitDx=0;exitDy=0;exitPerimeter=0;" parent="1" source="3" edge="1">
                    <mxGeometry relative="1" as="geometry">
                        <mxPoint x="400" y="320" as="targetPoint"/>
                    </mxGeometry>
                </mxCell>
                <mxCell id="17" value="Yes" style="edgeLabel;html=1;align=center;verticalAlign=middle;resizable=0;points=[];" parent="16" vertex="1" connectable="0">
                    <mxGeometry x="0.6096" y="-1" relative="1" as="geometry">
                        <mxPoint x="1" y="-26" as="offset"/>
                    </mxGeometry>
                </mxCell>
                <mxCell id="3" value="Have account?" style="strokeWidth=2;html=1;shape=mxgraph.flowchart.decision;whiteSpace=wrap;" parent="1" vertex="1">
                    <mxGeometry x="335" y="150" width="130" height="100" as="geometry"/>
                </mxCell>
                <mxCell id="11" style="edgeStyle=none;html=1;entryX=0.571;entryY=0;entryDx=0;entryDy=0;entryPerimeter=0;" parent="1" source="10" target="12" edge="1">
                    <mxGeometry relative="1" as="geometry">
                        <mxPoint x="190" y="310" as="targetPoint"/>
                    </mxGeometry>
                </mxCell>
                <mxCell id="10" value="Register" style="rounded=1;whiteSpace=wrap;html=1;absoluteArcSize=1;arcSize=14;strokeWidth=2;" parent="1" vertex="1">
                    <mxGeometry x="140" y="150" width="100" height="100" as="geometry"/>
                </mxCell>
                <mxCell id="19" style="edgeStyle=none;html=1;entryX=0;entryY=0.5;entryDx=0;entryDy=0;" parent="1" source="12" target="18" edge="1">
                    <mxGeometry relative="1" as="geometry"/>
                </mxCell>
                <mxCell id="12" value="Name&lt;br&gt;Age&lt;br&gt;Gender" style="shape=parallelogram;html=1;strokeWidth=2;perimeter=parallelogramPerimeter;whiteSpace=wrap;rounded=1;arcSize=12;size=0.23;" parent="1" vertex="1">
                    <mxGeometry x="110" y="320" width="140" height="100" as="geometry"/>
                </mxCell>
                <mxCell id="20" style="edgeStyle=none;html=1;exitX=0.5;exitY=1;exitDx=0;exitDy=0;" parent="1" source="18" target="21" edge="1">
                    <mxGeometry relative="1" as="geometry">
                        <mxPoint x="400" y="480" as="targetPoint"/>
                    </mxGeometry>
                </mxCell>
                <mxCell id="18" value="Login" style="rounded=1;whiteSpace=wrap;html=1;absoluteArcSize=1;arcSize=14;strokeWidth=2;" parent="1" vertex="1">
                    <mxGeometry x="350" y="320" width="100" height="100" as="geometry"/>
                </mxCell>
                <mxCell id="22" style="edgeStyle=none;html=1;" parent="1" source="21" target="24" edge="1">
                    <mxGeometry relative="1" as="geometry">
                        <mxPoint x="270" y="530" as="targetPoint"/>
                    </mxGeometry>
                </mxCell>
                <mxCell id="23" value="Yes" style="edgeLabel;html=1;align=center;verticalAlign=middle;resizable=0;points=[];" parent="22" vertex="1" connectable="0">
                    <mxGeometry x="0.4559" y="-1" relative="1" as="geometry">
                        <mxPoint x="18" y="1" as="offset"/>
                    </mxGeometry>
                </mxCell>
                <mxCell id="34" style="edgeStyle=none;html=1;entryX=0.5;entryY=0;entryDx=0;entryDy=0;" parent="1" source="21" target="33" edge="1">
                    <mxGeometry relative="1" as="geometry"/>
                </mxCell>
                <mxCell id="35" value="No" style="edgeLabel;html=1;align=center;verticalAlign=middle;resizable=0;points=[];" parent="34" vertex="1" connectable="0">
                    <mxGeometry x="-0.2665" y="1" relative="1" as="geometry">
                        <mxPoint as="offset"/>
                    </mxGeometry>
                </mxCell>
                <mxCell id="21" value="First visit?" style="strokeWidth=2;html=1;shape=mxgraph.flowchart.decision;whiteSpace=wrap;" parent="1" vertex="1">
                    <mxGeometry x="350" y="480" width="100" height="100" as="geometry"/>
                </mxCell>
                <mxCell id="25" style="edgeStyle=none;html=1;" parent="1" source="24" edge="1">
                    <mxGeometry relative="1" as="geometry">
                        <mxPoint x="100" y="600" as="targetPoint"/>
                        <mxPoint x="90" y="570" as="sourcePoint"/>
                    </mxGeometry>
                </mxCell>
                <mxCell id="24" value="Add activity" style="shape=parallelogram;html=1;strokeWidth=2;perimeter=parallelogramPerimeter;whiteSpace=wrap;rounded=1;arcSize=12;size=0.23;" parent="1" vertex="1">
                    <mxGeometry x="50" y="500" width="100" height="60" as="geometry"/>
                </mxCell>
                <mxCell id="28" style="edgeStyle=none;html=1;exitX=0.5;exitY=1;exitDx=0;exitDy=0;" parent="1" source="26" edge="1">
                    <mxGeometry relative="1" as="geometry">
                        <mxPoint x="90" y="690" as="targetPoint"/>
                    </mxGeometry>
                </mxCell>
                <mxCell id="26" value="set level" style="shape=parallelogram;html=1;strokeWidth=2;perimeter=parallelogramPerimeter;whiteSpace=wrap;rounded=1;arcSize=12;size=0.23;" parent="1" vertex="1">
                    <mxGeometry x="40" y="600" width="100" height="60" as="geometry"/>
                </mxCell>
                <mxCell id="29" style="edgeStyle=none;html=1;exitX=0;exitY=0.5;exitDx=0;exitDy=0;exitPerimeter=0;" parent="1" source="27" target="24" edge="1">
                    <mxGeometry relative="1" as="geometry">
                        <Array as="points">
                            <mxPoint x="-170" y="1230"/>
                            <mxPoint x="-170" y="780"/>
                            <mxPoint x="-170" y="530"/>
                        </Array>
                    </mxGeometry>
                </mxCell>
                <mxCell id="30" value="Yes" style="edgeLabel;html=1;align=center;verticalAlign=middle;resizable=0;points=[];" parent="29" vertex="1" connectable="0">
                    <mxGeometry x="0.0712" y="-3" relative="1" as="geometry">
                        <mxPoint as="offset"/>
                    </mxGeometry>
                </mxCell>
                <mxCell id="31" style="edgeStyle=none;html=1;exitX=1;exitY=0.5;exitDx=0;exitDy=0;exitPerimeter=0;entryX=0.573;entryY=1.01;entryDx=0;entryDy=0;entryPerimeter=0;" parent="1" source="27" edge="1" target="33">
                    <mxGeometry relative="1" as="geometry">
                        <mxPoint x="390" y="810" as="targetPoint"/>
                        <Array as="points">
                            <mxPoint x="407" y="1230"/>
                            <mxPoint x="407" y="1000"/>
                        </Array>
                    </mxGeometry>
                </mxCell>
                <mxCell id="32" value="No" style="edgeLabel;html=1;align=center;verticalAlign=middle;resizable=0;points=[];" parent="31" vertex="1" connectable="0">
                    <mxGeometry x="-0.1416" y="3" relative="1" as="geometry">
                        <mxPoint x="1" y="3" as="offset"/>
                    </mxGeometry>
                </mxCell>
                <mxCell id="27" value="Add another activity?" style="strokeWidth=2;html=1;shape=mxgraph.flowchart.decision;whiteSpace=wrap;" parent="1" vertex="1">
                    <mxGeometry x="190" y="1180" width="100" height="100" as="geometry"/>
                </mxCell>
                <mxCell id="33" value="Browse app" style="rounded=1;whiteSpace=wrap;html=1;absoluteArcSize=1;arcSize=14;strokeWidth=2;" parent="1" vertex="1">
                    <mxGeometry x="350" y="700" width="100" height="100" as="geometry"/>
                </mxCell>
                <mxCell id="37" style="edgeStyle=none;html=1;exitX=0.5;exitY=1;exitDx=0;exitDy=0;exitPerimeter=0;" edge="1" parent="1" source="36">
                    <mxGeometry relative="1" as="geometry">
                        <mxPoint x="90" y="850" as="targetPoint"/>
                    </mxGeometry>
                </mxCell>
                <mxCell id="38" value="Yes" style="edgeLabel;html=1;align=center;verticalAlign=middle;resizable=0;points=[];" vertex="1" connectable="0" parent="37">
                    <mxGeometry x="-0.3088" y="1" relative="1" as="geometry">
                        <mxPoint as="offset"/>
                    </mxGeometry>
                </mxCell>
                <mxCell id="44" style="edgeStyle=none;html=1;entryX=0;entryY=0.5;entryDx=0;entryDy=0;entryPerimeter=0;" edge="1" parent="1" source="36" target="43">
                    <mxGeometry relative="1" as="geometry">
                        <Array as="points">
                            <mxPoint x="-40" y="740"/>
                            <mxPoint x="-40" y="1010"/>
                        </Array>
                    </mxGeometry>
                </mxCell>
                <mxCell id="45" value="No" style="edgeLabel;html=1;align=center;verticalAlign=middle;resizable=0;points=[];" vertex="1" connectable="0" parent="44">
                    <mxGeometry x="-0.1589" relative="1" as="geometry">
                        <mxPoint as="offset"/>
                    </mxGeometry>
                </mxCell>
                <mxCell id="36" value="Add location?" style="strokeWidth=2;html=1;shape=mxgraph.flowchart.decision;whiteSpace=wrap;" vertex="1" parent="1">
                    <mxGeometry x="40" y="690" width="100" height="100" as="geometry"/>
                </mxCell>
                <mxCell id="46" style="edgeStyle=none;html=1;entryX=0.5;entryY=0;entryDx=0;entryDy=0;entryPerimeter=0;" edge="1" parent="1" source="42" target="43">
                    <mxGeometry relative="1" as="geometry"/>
                </mxCell>
                <mxCell id="42" value="Pick from list&lt;br&gt;Pick on map" style="rounded=1;whiteSpace=wrap;html=1;absoluteArcSize=1;arcSize=14;strokeWidth=2;" vertex="1" parent="1">
                    <mxGeometry x="40" y="850" width="100" height="50" as="geometry"/>
                </mxCell>
                <mxCell id="47" style="edgeStyle=none;html=1;entryX=0.5;entryY=0;entryDx=0;entryDy=0;entryPerimeter=0;exitX=1;exitY=0.5;exitDx=0;exitDy=0;exitPerimeter=0;" edge="1" parent="1" source="43" target="27">
                    <mxGeometry relative="1" as="geometry">
                        <Array as="points">
                            <mxPoint x="240" y="1010"/>
                        </Array>
                    </mxGeometry>
                </mxCell>
                <mxCell id="48" value="No" style="edgeLabel;html=1;align=center;verticalAlign=middle;resizable=0;points=[];" vertex="1" connectable="0" parent="47">
                    <mxGeometry x="-0.1011" y="1" relative="1" as="geometry">
                        <mxPoint as="offset"/>
                    </mxGeometry>
                </mxCell>
                <mxCell id="49" style="edgeStyle=none;html=1;" edge="1" parent="1" source="43">
                    <mxGeometry relative="1" as="geometry">
                        <mxPoint x="90" y="1119.9999999999998" as="targetPoint"/>
                    </mxGeometry>
                </mxCell>
                <mxCell id="50" value="Yes" style="edgeLabel;html=1;align=center;verticalAlign=middle;resizable=0;points=[];" vertex="1" connectable="0" parent="49">
                    <mxGeometry x="-0.3125" y="2" relative="1" as="geometry">
                        <mxPoint as="offset"/>
                    </mxGeometry>
                </mxCell>
                <mxCell id="43" value="Add note?" style="strokeWidth=2;html=1;shape=mxgraph.flowchart.decision;whiteSpace=wrap;" vertex="1" parent="1">
                    <mxGeometry x="40" y="960" width="100" height="100" as="geometry"/>
                </mxCell>
                <mxCell id="52" style="edgeStyle=none;html=1;entryX=0.5;entryY=0;entryDx=0;entryDy=0;entryPerimeter=0;" edge="1" parent="1" source="51" target="27">
                    <mxGeometry relative="1" as="geometry">
                        <mxPoint x="240" y="1149.9999999999998" as="targetPoint"/>
                        <Array as="points">
                            <mxPoint x="240" y="1150"/>
                        </Array>
                    </mxGeometry>
                </mxCell>
                <mxCell id="51" value="Input note" style="shape=parallelogram;html=1;strokeWidth=2;perimeter=parallelogramPerimeter;whiteSpace=wrap;rounded=1;arcSize=12;size=0.23;" vertex="1" parent="1">
                    <mxGeometry x="40" y="1120" width="100" height="60" as="geometry"/>
                </mxCell>
            </root>
        </mxGraphModel>
    </diagram>
</mxfile>